# xmcd
#
# Track frame offsets: 
#        150
#        18770
#        38535
#        55637
#        84955
#        106395
#        139117
#        168490
#        181175
#        196802
#        217775
#        246757
#        271377
#
# Disc length: 3830 seconds
#
# Revision: 3
# Processed by: cddbd v1.5.2PL0 Copyright (c) Steve Scherf et al.
# Submitted via: ExactAudioCopyFreeDBPlugin 1.0
#
DISCID=9b0ef40d
DTITLE=Jim White - No Such Place
DYEAR=2001
DGENRE=Folk/Rock
TTITLE0=Handcuffed To A Fence In Mississippi
TTITLE1=Wound That Never Heals, The
TTITLE2=Corvair
TTITLE3=Wrong Kind Of Love, The
TTITLE4=10 Miles To Go On A 9 Mile Road
TTITLE5=Christmas Day
TTITLE6=Bound To Forget
TTITLE7=God Was Drunk When He Made Me
TTITLE8=King Of The Road
TTITLE9=Ghost-Town Of My Brain
TTITLE10=Hey! You Going My Way???
TTITLE11=Love That Never Fails, The
TTITLE12=Corvair Reprise
EXTD=
EXTT0=
EXTT1=
EXTT2=
EXTT3=
EXTT4=
EXTT5=
EXTT6=
EXTT7=
EXTT8=
EXTT9=
EXTT10=
EXTT11=
EXTT12=
PLAYORDER=
